<?xml version="1.0" standalone="no"?>
<!DOCTYPE svg PUBLIC "-//W3C//DTD SVG 20010904//EN"
 "http://www.w3.org/TR/2001/REC-SVG-20010904/DTD/svg10.dtd">
<svg version="1.0" xmlns="http://www.w3.org/2000/svg"
 width="554.000000pt" height="494.000000pt" viewBox="0 0 554.000000 494.000000"
 preserveAspectRatio="xMidYMid meet">

<g transform="translate(0.000000,494.000000) scale(0.100000,-0.100000)"
fill="#000000" stroke="none">
<path d="M2581 4634 c-236 -40 -453 -155 -623 -330 -117 -121 -179 -213 -243
-361 l-34 -77 -63 -4 c-211 -12 -401 -97 -558 -252 -188 -185 -269 -391 -257
-650 7 -135 24 -205 78 -318 52 -107 210 -295 231 -274 4 4 23 47 42 96 l35
88 -39 52 c-56 74 -108 190 -126 281 -62 315 152 647 481 744 74 22 208 41
286 41 l47 0 17 53 c32 99 125 273 189 353 128 159 279 261 473 321 80 24 103
27 253 27 189 1 256 -13 406 -84 300 -144 494 -415 572 -800 10 -51 25 -96 33
-101 8 -5 38 -9 68 -9 59 0 224 -23 340 -46 108 -22 260 -74 388 -133 62 -28
115 -51 118 -51 17 0 -1 32 -42 72 -165 160 -465 318 -656 346 l-51 7 -13 55
c-100 403 -315 683 -657 851 -55 27 -129 58 -165 69 -164 48 -366 61 -530 34z"/>
<path d="M3610 3154 c-309 -29 -521 -120 -721 -311 -89 -85 -199 -234 -199
-270 0 -21 218 -463 240 -487 5 -5 33 43 64 105 128 263 306 425 522 476 68
15 123 18 389 18 347 0 376 -4 515 -72 57 -28 95 -57 160 -122 98 -98 151
-189 197 -336 l27 -90 1 -325 c0 -310 -1 -329 -23 -405 -77 -264 -262 -454
-512 -522 -56 -15 -108 -18 -365 -18 -290 0 -303 1 -373 24 -122 40 -237 127
-311 235 -15 23 -86 151 -156 286 -70 135 -172 328 -225 430 -118 224 -198
377 -320 615 -243 472 -384 741 -393 753 -7 9 -56 12 -182 12 -126 0 -175 -3
-183 -12 -5 -7 -54 -96 -107 -198 -54 -102 -122 -232 -152 -290 -109 -207
-515 -994 -740 -1435 -380 -742 -445 -875 -430 -880 7 -3 111 -4 232 -3 l220
3 53 98 54 97 391 -2 392 -3 74 -97 74 -98 90 0 c85 0 89 1 75 18 -8 9 -56 65
-106 125 -92 108 -100 121 -82 132 5 3 48 54 96 113 l86 107 -78 3 c-42 2 -83
1 -90 -2 -6 -2 -40 -41 -73 -85 l-62 -81 -364 0 -364 0 96 188 c53 103 102
197 110 209 l13 23 610 0 c336 0 610 3 610 6 0 8 -190 376 -200 387 -4 4 -179
8 -391 8 -211 0 -394 2 -407 6 -15 3 -20 9 -13 17 8 11 92 173 391 761 84 165
158 306 165 313 9 10 51 -64 205 -360 106 -205 262 -503 345 -663 84 -159 189
-362 235 -450 46 -88 91 -173 100 -190 10 -16 80 -151 155 -300 76 -148 143
-273 149 -278 6 -4 263 -6 571 -4 605 4 597 4 773 63 325 108 615 414 736 777
59 178 71 277 71 577 -1 303 -10 382 -66 556 -106 332 -306 572 -594 715 -219
108 -397 140 -760 137 -115 0 -226 -3 -245 -4z"/>
</g>
</svg>
